# xmcd CD database file
#
# Track frame offsets:
#	150
#	20024
#	36798
#	48741
#	58759
#	74485
#	86890
#	99956
#	112693
#	125241
#	136109
#	152186
#	165547
#	176712
#
# Disc length: 2564 seconds
#
# Revision: 0
# Processed by: cddbd v1.5.2PL0 Copyright (c) Steve Scherf et al.
# Submitted via: CDex 1.70beta2
#
DISCID=c30a020e
DTITLE=Keep calm and feel the Blues - Keep calm and feel the Blues CD1
DYEAR=1900
DGENRE=Blues
TTITLE0=Sinners Prayer-B.B. King and Ray Charles
TTITLE1=Little Red Rooster-Howlin Wolf
TTITLE2=My Babe-Little Walter
TTITLE3=Dimples-John Lee Hooker
TTITLE4=Forty Four Blues-Memphis Slim
TTITLE5=Ninty Nine-Sonny Boy Williamson
TTITLE6=Dust my Broom-Elmore James
TTITLE7=Hi-Heel Sneakers-Tommy Tucker
TTITLE8=Live I used to live-Lightnin' Hopkins
TTITLE9=Key to the Highway-Muddy Waters
TTITLE10=Cold and Lonesome-Jimmy Reed
TTITLE11=That's all right-Lightnin' Slim
TTITLE12=Jaqueline-Big Bill Broonzy
TTITLE13=Walter's Blues-Litte Walter and Otis Rush
EXTD=
EXTT0=
EXTT1=
EXTT2=
EXTT3=
EXTT4=
EXTT5=
EXTT6=
EXTT7=
EXTT8=
EXTT9=
EXTT10=
EXTT11=
EXTT12=
EXTT13=
PLAYORDER=
